#!OML:ASF I:\golf\golf\golf 2\Subject 1\2002-09-07\Subject1.ASF
:FULLY-SPECIFIED
:DEGREES
185
root -6.77839 17.7951 0.312142 -53.6736 85.5088 -70.1034
lowerback 3.84503 3.11391 -2.79801
upperback 4.47835 4.18152 4.37906
thorax 1.94924 2.01949 6.01166
lowerneck -14.427 -2.4325 0.899224
upperneck 40.8386 -0.50393 -3.06607
head 17.3997 0.146529 -1.45851
rclavicle 8.74653e-015 2.22639e-014
rhumerus -9.56295 1.78826 -101.236
rradius 31.1285
rwrist -51.7845
rhand -22.3264 -7.7013
rfingers 7.12502
rthumb 4.09362 -37.6417
lclavicle 8.74653e-015 2.22639e-014
lhumerus -9.19545 -65.8808 107.432
lradius 27.0702
lwrist 35.7229
lhand -0.0370878 65.7125
lfingers 7.12502
lthumb -154.445 85.9816
rfemur -29.6976 2.37155 11.3223
rtibia 28.4467
rfoot -8.53604 -12.3086
rtoes -3.51296
lfemur -27.6264 7.63126 -5.95251
ltibia 27.7584
lfoot -9.88098 3.06774
ltoes -24.3663
186
root -6.78422 17.7937 0.322912 -49.928 85.2484 -66.3554
lowerback 3.80444 3.12333 -2.66399
upperback 4.55131 4.19499 4.2191
thorax 2.06582 2.02637 5.77283
lowerneck -14.4926 -2.30617 0.904106
upperneck 40.7666 -0.37394 -2.97195
head 17.3812 0.204155 -1.39413
rclavicle -1.55052e-014 7.95139e-016
rhumerus -9.55324 1.67904 -101.34
rradius 31.749
rwrist -52.3851
rhand -23.1455 -7.7736
rfingers 7.12502
rthumb 3.30255 -37.7278
lclavicle -1.55052e-014 7.95139e-016
lhumerus -8.59095 -66.9669 106.591
lradius 27.0612
lwrist 35.7046
lhand 0.418065 64.2299
lfingers 7.12502
lthumb -154.009 87.5275
rfemur -29.8805 2.31885 11.5017
rtibia 28.5393
rfoot -8.57431 -11.7166
rtoes -3.18748
lfemur -27.59 7.69088 -5.75229
ltibia 27.9639
lfoot -10.0001 3.2764
ltoes -23.3613
187
root -6.79109 17.7837 0.335446 -45.2299 84.9234 -61.6515
lowerback 3.7238 3.15907 -2.71073
upperback 4.65186 4.24144 4.12348
thorax 2.21365 2.04371 5.70707
lowerneck -14.5248 -2.14895 0.908492
upperneck 40.6211 -0.167713 -2.97006
head 17.3148 0.277677 -1.3565
rclavicle -4.6118e-014 -5.56597e-015
rhumerus -9.4785 1.53283 -101.359
rradius 32.342
rwrist -53.2206
rhand -23.7302 -7.82454
rfingers 7.12502
rthumb 2.73792 -37.7867
lclavicle -4.6118e-014 -5.56597e-015
lhumerus -7.67321 -67.5189 105.671
lradius 26.8263
lwrist 34.7132
lhand 1.78395 64.1629
lfingers 7.12502
lthumb -152.702 87.7932
rfemur -30.1109 2.28235 11.6633
rtibia 28.6315
rfoot -8.51721 -11.1298
rtoes -3.45306
lfemur -27.5091 7.92752 -5.64727
ltibia 28.1548
lfoot -9.99082 3.66942
ltoes -23.8235
188
root -6.79788 17.7743 0.351861 -40.4269 84.5017 -56.8549
lowerback 3.64616 3.16925 -2.89445
upperback 4.72989 4.25194 4.09891
thorax 2.32688 2.03963 5.79361
lowerneck -14.5683 -1.95621 0.878241
upperneck 40.5395 0.165832 -3.09134
head 17.2931 0.382885 -1.34661
rclavicle -2.5842e-014 -7.95139e-015
rhumerus -9.48434 1.52265 -101.329
rradius 32.9166
rwrist -53.9106
rhand -24.3496 -8.10014
rfingers 7.12502
rthumb 2.13971 -38.0692
lclavicle -2.5842e-014 -7.95139e-015
lhumerus -6.72277 -67.9789 104.771
lradius 26.5842
lwrist 33.7768
lhand 3.12371 63.8586
lfingers 7.12502
lthumb -151.421 88.306
rfemur -30.3647 2.30261 11.8422
rtibia 28.7052
rfoot -8.45273 -10.54
rtoes -3.39697
lfemur -27.389 8.19927 -5.51734
ltibia 28.336
lfoot -9.96592 4.13514
ltoes -24.5755
189
root -6.80082 17.7692 0.370358 -36.4944 84.0391 -52.9284
lowerback 3.57422 3.15159 -3.14992
upperback 4.75296 4.224 4.12327
thorax 2.37647 2.01571 5.97064
lowerneck -14.5106 -1.74532 0.864752
upperneck 40.489 0.576364 -3.31321
head 17.2667 0.512237 -1.37037
rclavicle -1.31198e-014 3.10104e-014
rhumerus -9.63925 1.49992 -101.206
rradius 33.4784
rwrist -54.0963
rhand -24.9992 -8.59701
rfingers 7.12502
rthumb 1.51231 -38.5714
lclavicle -1.31198e-014 3.10104e-014
lhumerus -6.15793 -69.3304 104.134
lradius 26.8366
lwrist 34.7336
lhand 2.29126 62.6497
lfingers 7.12502
lthumb -152.217 89.3838
rfemur -30.5531 2.31437 12.0403
rtibia 28.7194
rfoot -8.45472 -9.91392
rtoes -3.40602
lfemur -27.2649 8.39766 -5.32454
ltibia 28.5431
lfoot -10.0706 4.49047
ltoes -24.3313
190
root -6.80218 17.7689 0.391699 -32.8056 83.4175 -49.2417
lowerback 3.48019 3.1404 -3.47578
upperback 4.77164 4.20463 4.20379
thorax 2.4249 1.99346 6.24805
lowerneck -14.4086 -1.50196 0.844451
upperneck 40.4015 1.06135 -3.59985
head 17.2137 0.661754 -1.40805
rclavicle -2.42517e-014 1.90833e-014
rhumerus -9.80746 1.36044 -101.081
rradius 33.9404
rwrist -54.0166
rhand -25.5581 -8.78731
rfingers 7.12502
rthumb 0.972501 -38.7648
lclavicle -2.42517e-014 1.90833e-014
lhumerus -5.53702 -70.2931 103.559
lradius 27.0471
lwrist 35.4081
lhand 1.46745 62.565
lfingers 7.12502
lthumb -153.005 89.3439
rfemur -30.7035 2.44223 12.3099
rtibia 28.6528
rfoot -8.41121 -9.25241
rtoes -4.23742
lfemur -27.1343 8.70693 -5.05636
ltibia 28.8054
lfoot -10.2325 4.82843
ltoes -23.85
191
root -6.80712 17.772 0.403701 -31.1684 82.9248 -47.5642
lowerback 3.54684 3.0385 -3.50733
upperback 4.78909 4.06689 4.22732
thorax 2.42068 1.92306 6.29201
lowerneck -14.3733 -1.24788 0.815624
upperneck 40.319 1.52875 -3.81066
head 17.1816 0.81154 -1.41394
rclavicle 2.3059e-014 3.10104e-014
rhumerus -10.0562 1.74235 -101.033
rradius 34.5899
rwrist -54.7929
rhand -26.4949 -8.29181
rfingers 7.12502
rthumb 0.0677234 -38.2715
lclavicle 2.3059e-014 3.10104e-014
lhumerus -4.63973 -70.6163 102.817
lradius 26.9116
lwrist 34.849
lhand 1.85522 63.1048
lfingers 7.12502
lthumb -152.634 88.8621
rfemur -30.7377 2.34499 12.6507
rtibia 28.5351
rfoot -8.36135 -8.55722
rtoes -4.98214
lfemur -27.0953 8.7632 -4.73557
ltibia 29.1085
lfoot -10.3603 5.16309
ltoes -23.3925
